<svg width="16" height="13" viewBox="0 0 16 13" fill="none" xmlns="http://www.w3.org/2000/svg">
<path fill-rule="evenodd" clip-rule="evenodd" d="M11.4733 5.00001L8.55329 0.62668C8.42663 0.440013 8.21329 0.34668 7.99996 0.34668C7.78663 0.34668 7.57329 0.440013 7.44663 0.633346L4.52663 5.00001H1.33329C0.966626 5.00001 0.666626 5.30001 0.666626 5.66668C0.666626 5.72668 0.673293 5.78668 0.693293 5.84668L2.38663 12.0267C2.53996 12.5867 3.05329 13 3.66663 13H12.3333C12.9466 13 13.46 12.5867 13.62 12.0267L15.3133 5.84668L15.3333 5.66668C15.3333 5.30001 15.0333 5.00001 14.6666 5.00001H11.4733ZM5.99996 5.00001L7.99996 2.06668L9.99996 5.00001H5.99996ZM6.66663 9.00001C6.66663 9.73335 7.26663 10.3333 7.99996 10.3333C8.73329 10.3333 9.33329 9.73335 9.33329 9.00001C9.33329 8.26668 8.73329 7.66668 7.99996 7.66668C7.26663 7.66668 6.66663 8.26668 6.66663 9.00001Z" fill="black"/>
</svg>
